<svg width="794" height="900" viewBox="0 0 794 900" fill="none" xmlns="http://www.w3.org/2000/svg">
<path d="M20.5 947.225V625.775C20.5 611.521 26.4017 598.446 35.2617 588.933C44.1251 579.417 55.9163 573.5 67.6667 573.5H448.5V947.225C448.5 975.738 424.888 999.5 396.567 999.5H72.4336C44.1128 999.5 20.5 975.738 20.5 947.225Z" stroke="#2B4D9C"/>
<path d="M465.623 -356.532L465.625 -356.528L892.847 487.223C900.78 505.865 898.137 527.187 888.198 543.857C878.26 560.527 861.054 572.5 839.897 572.5H450.358L7.24549 -303.237L7.24007 -303.248L7.23415 -303.258C-3.33937 -321.879 -0.708517 -343.177 9.89145 -359.845C20.4934 -376.516 39.0355 -388.5 60.203 -388.5H412.667C433.865 -388.5 455.038 -377.836 465.623 -356.532Z" stroke="#2B4D9C"/>
</svg>
