<svg width="24" height="25" viewBox="0 0 24 25" fill="none" xmlns="http://www.w3.org/2000/svg">
<g clip-path="url(#clip0_203_14709)">
<path d="M11.9995 24.5C18.6269 24.5 23.9995 19.1274 23.9995 12.5C23.9995 5.87258 18.6269 0.5 11.9995 0.5C5.3721 0.5 -0.000488281 5.87258 -0.000488281 12.5C-0.000488281 19.1274 5.3721 24.5 11.9995 24.5Z" fill="#6DA544"/>
<path d="M11.9999 5.1958L21.913 12.5001L11.9999 19.8045L2.08691 12.5001L11.9999 5.1958Z" fill="#FFDA44"/>
<path d="M12.0001 16.674C14.3052 16.674 16.174 14.8052 16.174 12.5001C16.174 10.1949 14.3052 8.32617 12.0001 8.32617C9.69489 8.32617 7.82617 10.1949 7.82617 12.5001C7.82617 14.8052 9.69489 16.674 12.0001 16.674Z" fill="#F0F0F0"/>
<path d="M9.91276 12.2393C9.18695 12.2393 8.48649 12.3496 7.82715 12.5545C7.85635 14.8345 9.71279 16.6741 11.9997 16.6741C13.4139 16.6741 14.6628 15.9701 15.4178 14.8943C14.1261 13.2773 12.1385 12.2393 9.91276 12.2393Z" fill="#0052B4"/>
<path d="M16.0962 13.2997C16.1464 13.0408 16.1735 12.7737 16.1735 12.5001C16.1735 10.1948 14.3048 8.32617 11.9997 8.32617C10.2796 8.32617 8.80306 9.36684 8.16406 10.8527C8.72891 10.7356 9.31372 10.674 9.91273 10.674C12.337 10.674 14.5301 11.6817 16.0962 13.2997Z" fill="#0052B4"/>
</g>
<defs>
<clipPath id="clip0_203_14709">
<rect width="24" height="24" fill="white" transform="translate(0 0.5)"/>
</clipPath>
</defs>
</svg>
