<svg width="24" height="24" viewBox="0 0 24 24" fill="none" xmlns="http://www.w3.org/2000/svg">
<g clip-path="url(#clip0_349_14766)">
<mask id="mask0_349_14766" style="mask-type:alpha" maskUnits="userSpaceOnUse" x="-8" y="0" width="32" height="24">
<rect x="-8" width="32" height="24" fill="white"/>
</mask>
<g mask="url(#mask0_349_14766)">
<path fill-rule="evenodd" clip-rule="evenodd" d="M-8 0H24V24H-8V0Z" fill="#F7FCFF"/>
<path fill-rule="evenodd" clip-rule="evenodd" d="M-8 14.6667V16.6667H24V14.6667H-8Z" fill="#E31D1C"/>
<path fill-rule="evenodd" clip-rule="evenodd" d="M-8 18.3333V20.3333H24V18.3333H-8Z" fill="#E31D1C"/>
<path fill-rule="evenodd" clip-rule="evenodd" d="M-8 7.33325V9.33325H24V7.33325H-8Z" fill="#E31D1C"/>
<path fill-rule="evenodd" clip-rule="evenodd" d="M-8 22V24H24V22H-8Z" fill="#E31D1C"/>
<path fill-rule="evenodd" clip-rule="evenodd" d="M-8 11V13H24V11H-8Z" fill="#E31D1C"/>
<path fill-rule="evenodd" clip-rule="evenodd" d="M-8 0V2H24V0H-8Z" fill="#E31D1C"/>
<path fill-rule="evenodd" clip-rule="evenodd" d="M-8 3.66675V5.66675H24V3.66675H-8Z" fill="#E31D1C"/>
<rect x="-8" width="20" height="13" fill="#2E42A5"/>
<path fill-rule="evenodd" clip-rule="evenodd" d="M-6.27779 2.93871L-7.00367 3.44759L-6.7586 2.54198L-7.40332 1.96807H-6.56123L-6.2788 1.229L-5.94763 1.96807H-5.22978L-5.79381 2.54198L-5.57545 3.44759L-6.27779 2.93871ZM-2.27779 2.93871L-3.00367 3.44759L-2.7586 2.54198L-3.40332 1.96807H-2.56123L-2.2788 1.229L-1.94763 1.96807H-1.22978L-1.79381 2.54198L-1.57545 3.44759L-2.27779 2.93871ZM0.996331 3.44759L1.72221 2.93871L2.42455 3.44759L2.20619 2.54198L2.77022 1.96807H2.05237L1.7212 1.229L1.43877 1.96807H0.59668L1.2414 2.54198L0.996331 3.44759ZM5.72221 2.93871L4.99633 3.44759L5.2414 2.54198L4.59668 1.96807H5.43877L5.7212 1.229L6.05237 1.96807H6.77022L6.20619 2.54198L6.42455 3.44759L5.72221 2.93871ZM-7.00367 7.44759L-6.27779 6.93871L-5.57545 7.44759L-5.79381 6.54198L-5.22978 5.96807H-5.94763L-6.2788 5.229L-6.56123 5.96807H-7.40332L-6.7586 6.54198L-7.00367 7.44759ZM-2.27779 6.93871L-3.00367 7.44759L-2.7586 6.54198L-3.40332 5.96807H-2.56123L-2.2788 5.229L-1.94763 5.96807H-1.22978L-1.79381 6.54198L-1.57545 7.44759L-2.27779 6.93871ZM0.996331 7.44759L1.72221 6.93871L2.42455 7.44759L2.20619 6.54198L2.77022 5.96807H2.05237L1.7212 5.229L1.43877 5.96807H0.59668L1.2414 6.54198L0.996331 7.44759ZM5.72221 6.93871L4.99633 7.44759L5.2414 6.54198L4.59668 5.96807H5.43877L5.7212 5.229L6.05237 5.96807H6.77022L6.20619 6.54198L6.42455 7.44759L5.72221 6.93871ZM-7.00367 11.4476L-6.27779 10.9387L-5.57545 11.4476L-5.79381 10.542L-5.22978 9.96807H-5.94763L-6.2788 9.229L-6.56123 9.96807H-7.40332L-6.7586 10.542L-7.00367 11.4476ZM-2.27779 10.9387L-3.00367 11.4476L-2.7586 10.542L-3.40332 9.96807H-2.56123L-2.2788 9.229L-1.94763 9.96807H-1.22978L-1.79381 10.542L-1.57545 11.4476L-2.27779 10.9387ZM0.996331 11.4476L1.72221 10.9387L2.42455 11.4476L2.20619 10.542L2.77022 9.96807H2.05237L1.7212 9.229L1.43877 9.96807H0.59668L1.2414 10.542L0.996331 11.4476ZM5.72221 10.9387L4.99633 11.4476L5.2414 10.542L4.59668 9.96807H5.43877L5.7212 9.229L6.05237 9.96807H6.77022L6.20619 10.542L6.42455 11.4476L5.72221 10.9387ZM8.99633 3.44759L9.72221 2.93871L10.4245 3.44759L10.2062 2.54198L10.7702 1.96807H10.0524L9.7212 1.229L9.43877 1.96807H8.59668L9.2414 2.54198L8.99633 3.44759ZM9.72221 6.93871L8.99633 7.44759L9.2414 6.54198L8.59668 5.96807H9.43877L9.7212 5.229L10.0524 5.96807H10.7702L10.2062 6.54198L10.4245 7.44759L9.72221 6.93871ZM8.99633 11.4476L9.72221 10.9387L10.4245 11.4476L10.2062 10.542L10.7702 9.96807H10.0524L9.7212 9.229L9.43877 9.96807H8.59668L9.2414 10.542L8.99633 11.4476ZM-4.27779 4.93871L-5.00367 5.44759L-4.7586 4.54198L-5.40332 3.96807H-4.56123L-4.2788 3.229L-3.94763 3.96807H-3.22978L-3.79381 4.54198L-3.57545 5.44759L-4.27779 4.93871ZM-1.00367 5.44759L-0.277789 4.93871L0.424549 5.44759L0.206187 4.54198L0.770224 3.96807H0.0523672L-0.278804 3.229L-0.561233 3.96807H-1.40332L-0.758604 4.54198L-1.00367 5.44759ZM3.72221 4.93871L2.99633 5.44759L3.2414 4.54198L2.59668 3.96807H3.43877L3.7212 3.229L4.05237 3.96807H4.77022L4.20619 4.54198L4.42455 5.44759L3.72221 4.93871ZM-5.00367 9.44759L-4.27779 8.93871L-3.57545 9.44759L-3.79381 8.54198L-3.22978 7.96807H-3.94763L-4.2788 7.229L-4.56123 7.96807H-5.40332L-4.7586 8.54198L-5.00367 9.44759ZM-0.277789 8.93871L-1.00367 9.44759L-0.758604 8.54198L-1.40332 7.96807H-0.561233L-0.278804 7.229L0.0523672 7.96807H0.770224L0.206187 8.54198L0.424549 9.44759L-0.277789 8.93871ZM2.99633 9.44759L3.72221 8.93871L4.42455 9.44759L4.20619 8.54198L4.77022 7.96807H4.05237L3.7212 7.229L3.43877 7.96807H2.59668L3.2414 8.54198L2.99633 9.44759ZM7.72221 4.93871L6.99633 5.44759L7.2414 4.54198L6.59668 3.96807H7.43877L7.7212 3.229L8.05237 3.96807H8.77022L8.20619 4.54198L8.42455 5.44759L7.72221 4.93871ZM6.99633 9.44759L7.72221 8.93871L8.42455 9.44759L8.20619 8.54198L8.77022 7.96807H8.05237L7.7212 7.229L7.43877 7.96807H6.59668L7.2414 8.54198L6.99633 9.44759Z" fill="#F7FCFF"/>
</g>
</g>
<defs>
<clipPath id="clip0_349_14766">
<rect width="24" height="24" rx="12" fill="white"/>
</clipPath>
</defs>
</svg>
