<svg width="24" height="24" viewBox="0 0 24 24" fill="none" xmlns="http://www.w3.org/2000/svg">
<g clip-path="url(#clip0_349_14823)">
<mask id="mask0_349_14823" style="mask-type:alpha" maskUnits="userSpaceOnUse" x="-3" y="0" width="32" height="24">
<rect x="-3" width="32" height="24" fill="white"/>
</mask>
<g mask="url(#mask0_349_14823)">
<path fill-rule="evenodd" clip-rule="evenodd" d="M-3 0V24H29V0H-3Z" fill="#FFB400"/>
<mask id="mask1_349_14823" style="mask-type:alpha" maskUnits="userSpaceOnUse" x="-3" y="0" width="32" height="24">
<path fill-rule="evenodd" clip-rule="evenodd" d="M-3 0V24H29V0H-3Z" fill="white"/>
</mask>
<g mask="url(#mask1_349_14823)">
<path fill-rule="evenodd" clip-rule="evenodd" d="M-3 0V6H29V0H-3Z" fill="#C51918"/>
<path fill-rule="evenodd" clip-rule="evenodd" d="M-3 18V24H29V18H-3Z" fill="#C51918"/>
<rect x="2.00781" y="10.272" width="1.12" height="5.824" fill="#F1F9FF"/>
<path fill-rule="evenodd" clip-rule="evenodd" d="M3.57557 9.26416H1.55957V9.82416H1.89557V10.2722H3.23957V9.82416H3.57557V9.26416Z" fill="#C88A02"/>
<path fill-rule="evenodd" clip-rule="evenodd" d="M3.23957 16.4321H3.57557V16.9921H1.55957V16.4321H1.89557V15.9841H3.23957V16.4321Z" fill="#C88A02"/>
<path fill-rule="evenodd" clip-rule="evenodd" d="M2.56818 9.37604C2.81191 9.37604 2.83669 9.28427 2.98048 9.14719C3.09214 9.04075 3.35218 8.90875 3.35218 8.76004C3.35218 8.41984 3.00117 8.14404 2.56818 8.14404C2.13519 8.14404 1.78418 8.41984 1.78418 8.76004C1.78418 8.92571 1.96326 9.03648 2.09866 9.14719C2.24132 9.26383 2.34604 9.37604 2.56818 9.37604Z" fill="#AD1619"/>
<path fill-rule="evenodd" clip-rule="evenodd" d="M1.55957 16.9919H3.57557V17.8879C3.57557 17.8879 3.32357 17.7759 3.07157 17.7759C2.81957 17.7759 2.56757 17.8879 2.56757 17.8879C2.56757 17.8879 2.31557 17.7759 2.06357 17.7759C1.81157 17.7759 1.55957 17.8879 1.55957 17.8879V16.9919Z" fill="#005BBF"/>
<mask id="mask2_349_14823" style="mask-type:alpha" maskUnits="userSpaceOnUse" x="1" y="16" width="3" height="2">
<path fill-rule="evenodd" clip-rule="evenodd" d="M1.55957 16.9919H3.57557V17.8879C3.57557 17.8879 3.32357 17.7759 3.07157 17.7759C2.81957 17.7759 2.56757 17.8879 2.56757 17.8879C2.56757 17.8879 2.31557 17.7759 2.06357 17.7759C1.81157 17.7759 1.55957 17.8879 1.55957 17.8879V16.9919Z" fill="white"/>
</mask>
<g mask="url(#mask2_349_14823)">
<path d="M1.54107 17.7118L1.49707 17.6045C1.67865 17.5237 1.86087 17.4832 2.04337 17.4832C2.16128 17.4832 2.22285 17.4996 2.32753 17.5462C2.41947 17.5871 2.46713 17.5998 2.56768 17.5998C2.66823 17.5998 2.71589 17.5871 2.80783 17.5462C2.9125 17.4996 2.97407 17.4832 3.09198 17.4832C3.27448 17.4832 3.45671 17.5237 3.63828 17.6045L3.59428 17.7118C3.42632 17.6371 3.25902 17.5998 3.09198 17.5998C2.99143 17.5998 2.94377 17.6125 2.85183 17.6535C2.74716 17.7 2.68559 17.7165 2.56768 17.7165C2.44977 17.7165 2.3882 17.7 2.28352 17.6535C2.19158 17.6125 2.14393 17.5998 2.04337 17.5998C1.87634 17.5998 1.70903 17.6371 1.54107 17.7118Z" fill="white"/>
<path d="M1.54107 17.3759L1.49707 17.2686C1.67865 17.1878 1.86087 17.1472 2.04337 17.1472C2.16128 17.1472 2.22285 17.1637 2.32753 17.2102C2.41947 17.2512 2.46713 17.2639 2.56768 17.2639C2.66823 17.2639 2.71589 17.2512 2.80783 17.2102C2.9125 17.1637 2.97407 17.1472 3.09198 17.1472C3.27448 17.1472 3.45671 17.1878 3.63828 17.2686L3.59428 17.3759C3.42632 17.3011 3.25902 17.2639 3.09198 17.2639C2.99143 17.2639 2.94377 17.2766 2.85183 17.3175C2.74716 17.3641 2.68559 17.3806 2.56768 17.3806C2.44977 17.3806 2.3882 17.3641 2.28352 17.3175C2.19158 17.2766 2.14393 17.2639 2.04337 17.2639C1.87634 17.2639 1.70903 17.3011 1.54107 17.3759Z" fill="white"/>
</g>
<rect x="12.9834" y="10.272" width="1.12" height="5.824" fill="#F1F9FF"/>
<path fill-rule="evenodd" clip-rule="evenodd" d="M14.5521 9.26416H12.5361V9.82416H12.8721V10.2722H14.2161V9.82416H14.5521V9.26416Z" fill="#C88A02"/>
<path fill-rule="evenodd" clip-rule="evenodd" d="M14.2161 16.4319H14.5521V16.9919H12.5361V16.4319H12.8721V15.9839H14.2161V16.4319Z" fill="#C88A02"/>
<path fill-rule="evenodd" clip-rule="evenodd" d="M13.5438 9.37604C13.7875 9.37604 13.8123 9.28427 13.9561 9.14719C14.0677 9.04075 14.3278 8.90875 14.3278 8.76004C14.3278 8.41984 13.9768 8.14404 13.5438 8.14404C13.1108 8.14404 12.7598 8.41984 12.7598 8.76004C12.7598 8.92571 12.9388 9.03648 13.0742 9.14719C13.2169 9.26383 13.3216 9.37604 13.5438 9.37604Z" fill="#AD1619"/>
<path fill-rule="evenodd" clip-rule="evenodd" d="M12.5361 16.9922H14.5521V17.8882C14.5521 17.8882 14.3001 17.7762 14.0481 17.7762C13.7961 17.7762 13.5441 17.8882 13.5441 17.8882C13.5441 17.8882 13.2921 17.7762 13.0401 17.7762C12.7881 17.7762 12.5361 17.8882 12.5361 17.8882V16.9922Z" fill="#005BBF"/>
<mask id="mask3_349_14823" style="mask-type:alpha" maskUnits="userSpaceOnUse" x="12" y="16" width="3" height="2">
<path fill-rule="evenodd" clip-rule="evenodd" d="M12.5361 16.9922H14.5521V17.8882C14.5521 17.8882 14.3001 17.7762 14.0481 17.7762C13.7961 17.7762 13.5441 17.8882 13.5441 17.8882C13.5441 17.8882 13.2921 17.7762 13.0401 17.7762C12.7881 17.7762 12.5361 17.8882 12.5361 17.8882V16.9922Z" fill="white"/>
</mask>
<g mask="url(#mask3_349_14823)">
<path d="M12.5176 17.712L12.4736 17.6048C12.6552 17.5239 12.8374 17.4834 13.0199 17.4834C13.1378 17.4834 13.1994 17.4998 13.3041 17.5464C13.396 17.5873 13.4437 17.6001 13.5442 17.6001C13.6448 17.6001 13.6924 17.5873 13.7844 17.5464C13.8891 17.4998 13.9506 17.4834 14.0685 17.4834C14.251 17.4834 14.4333 17.5239 14.6148 17.6048L14.5708 17.712C14.4029 17.6373 14.2356 17.6001 14.0685 17.6001C13.968 17.6001 13.9203 17.6128 13.8284 17.6537C13.7237 17.7003 13.6621 17.7167 13.5442 17.7167C13.4263 17.7167 13.3648 17.7003 13.2601 17.6537C13.1681 17.6128 13.1205 17.6001 13.0199 17.6001C12.8529 17.6001 12.6856 17.6373 12.5176 17.712Z" fill="white"/>
<path d="M12.5176 17.3761L12.4736 17.2688C12.6552 17.188 12.8374 17.1475 13.0199 17.1475C13.1378 17.1475 13.1994 17.1639 13.3041 17.2105C13.396 17.2514 13.4437 17.2641 13.5442 17.2641C13.6448 17.2641 13.6924 17.2514 13.7844 17.2105C13.8891 17.1639 13.9506 17.1475 14.0685 17.1475C14.251 17.1475 14.4333 17.188 14.6148 17.2688L14.5708 17.3761C14.4029 17.3014 14.2356 17.2641 14.0685 17.2641C13.968 17.2641 13.9203 17.2769 13.8284 17.3178C13.7237 17.3644 13.6621 17.3808 13.5442 17.3808C13.4263 17.3808 13.3648 17.3644 13.2601 17.3178C13.1681 17.2769 13.1205 17.2641 13.0199 17.2641C12.8529 17.2641 12.6856 17.3014 12.5176 17.3761Z" fill="white"/>
</g>
<path fill-rule="evenodd" clip-rule="evenodd" d="M1.98776 15.6799C2.18968 15.4351 2.3026 15.2124 2.3026 14.9758C2.3026 14.8267 2.25822 14.6979 2.18046 14.5926L2.1936 14.5867C2.19239 14.5873 2.41512 14.4902 2.49266 14.453C2.63681 14.3839 2.76381 14.3107 2.88763 14.2206C2.96668 14.1631 3.0726 14.1005 3.23407 14.0138C3.26197 13.9988 3.33759 13.9587 3.38582 13.9331L3.42676 13.9114C3.50523 13.8695 3.56367 13.8374 3.61796 13.8059C3.78713 13.7078 3.89892 13.6267 3.98443 13.5182C4.18694 13.2614 4.1449 12.9133 3.8611 12.7201C3.72206 12.6254 3.53444 12.5711 3.25941 12.5284L3.20254 12.5196C3.10858 12.505 2.92805 12.4771 2.86605 12.4674C2.73444 12.4467 2.61701 12.4274 2.5123 12.4091C3.20086 12.2946 4.1841 12.3367 4.6166 12.56L5.02766 11.7638C4.14631 11.3088 2.13818 11.3553 1.38805 11.8718C0.837853 12.2508 0.911684 12.8235 1.48414 13.0702C1.72334 13.1732 2.03517 13.2416 2.61222 13.3343C2.51552 13.3904 2.43534 13.4417 2.36064 13.496C2.28489 13.5511 2.20372 13.5979 2.10527 13.6451C2.0582 13.6676 1.9188 13.7288 1.85488 13.7569L1.85484 13.7569L1.85483 13.7569L1.82272 13.7711C1.35643 13.9831 1.13013 14.2764 1.19776 14.8059L1.23437 15.0925L1.30003 15.1126L1.98776 15.6799ZM1.41137 14.9392L1.40995 14.9433L1.41104 14.9404L1.41137 14.9392ZM13.7062 14.9758C13.7062 15.2124 13.8191 15.4351 14.021 15.6799L14.7088 15.1126L14.7744 15.0925L14.811 14.8059C14.8787 14.2764 14.6524 13.9831 14.1861 13.7711L14.154 13.7569C14.0901 13.7289 13.9506 13.6676 13.9035 13.6451C13.8051 13.5979 13.7239 13.5511 13.6481 13.496C13.5734 13.4417 13.4933 13.3904 13.3966 13.3343C13.9736 13.2416 14.2854 13.1732 14.5247 13.0702C15.0971 12.8235 15.1709 12.2508 14.6207 11.8718C13.8706 11.3553 11.8625 11.3088 10.9811 11.7638L11.3922 12.56C11.8247 12.3367 12.8079 12.2946 13.4965 12.4091C13.3918 12.4274 13.2743 12.4467 13.1427 12.4674C13.0807 12.4771 12.9002 12.505 12.8062 12.5196L12.7494 12.5284C12.4743 12.5711 12.2867 12.6254 12.1477 12.7201C11.8639 12.9133 11.8218 13.2614 12.0244 13.5182C12.1099 13.6267 12.2217 13.7078 12.3908 13.8059C12.4451 13.8374 12.5036 13.8695 12.582 13.9114L12.6228 13.933C12.671 13.9586 12.7468 13.9988 12.7747 14.0138C12.9362 14.1005 13.0421 14.1631 13.1212 14.2206C13.245 14.3107 13.372 14.3839 13.5161 14.453C13.5937 14.4902 13.8164 14.5873 13.8152 14.5867L13.8283 14.5926C13.7506 14.6979 13.7062 14.8267 13.7062 14.9758Z" fill="#AD1619"/>
<path d="M2.92317 12.4001L3.25375 12.4685V12.9613C2.90166 13.2422 2.00781 13.7157 2.00781 13.7157V12.4001H2.92317Z" fill="#F1F9FF"/>
<path d="M13.3141 12.3999L12.9836 12.4683V12.961C13.3356 13.242 14.2295 13.7155 14.2295 13.7155V12.3999H13.3141Z" fill="#F1F9FF"/>
<path fill-rule="evenodd" clip-rule="evenodd" d="M11.7755 7.20627V7.04229C11.1995 6.62884 10.5962 6.42212 9.96571 6.42212C9.36116 6.15459 8.74924 6.05077 8.12995 6.11068C8.13012 6.10874 8.13021 6.10776 8.13021 6.10776C7.19923 6.01666 6.261 6.42212 6.261 6.42212C5.31529 6.42212 4.45117 7.04229 4.45117 7.04229V7.20627L5.5808 8.3408C5.5808 8.3408 5.8988 9.43291 8.12598 9.1761V9.17892C8.12598 9.17892 9.60033 9.13868 9.70392 9.10422C9.74503 9.09055 9.78766 9.0781 9.83122 9.06538C10.12 8.98107 10.4497 8.88483 10.6459 8.3408L11.7755 7.20627ZM8.12598 6.15647C8.09488 6.52092 7.90884 8.81669 8.12598 9.16907V6.15647Z" fill="#AD1619"/>
<path fill-rule="evenodd" clip-rule="evenodd" d="M5.31349 8.14963L5.31424 8.14618L4.51953 7.39849L4.59628 7.31692L5.342 8.01852L5.36109 7.93074C5.48309 7.95727 5.57226 7.96702 5.62423 7.9615V7.8093L5.78954 7.89876C5.87085 7.94276 5.98729 7.9546 6.14065 7.92964C6.2533 7.91131 6.3293 7.78049 6.35416 7.50173L6.40433 6.93896L6.57263 7.47831C6.64879 7.72237 6.76497 7.82996 6.93037 7.82996C7.09191 7.82996 7.15685 7.77073 7.16402 7.62145L7.18434 7.19807L7.37581 7.57623C7.44479 7.71247 7.53991 7.77428 7.67517 7.77428C7.86861 7.77428 7.99784 7.613 7.99784 7.35996H8.00181H8.22184H8.22581C8.22581 7.613 8.35504 7.77428 8.54848 7.77428C8.68374 7.77428 8.77886 7.71247 8.84784 7.57623L9.0393 7.19807L9.05963 7.62145C9.0668 7.77073 9.13174 7.82996 9.29328 7.82996C9.45868 7.82996 9.57486 7.72237 9.65102 7.47831L9.81932 6.93896L9.86949 7.50173C9.89435 7.78049 9.97035 7.91131 10.083 7.92964C10.2364 7.9546 10.3528 7.94276 10.4341 7.89876L10.5994 7.8093V7.9615C10.6514 7.96702 10.7406 7.95727 10.8626 7.93074L10.8979 8.09336L11.7232 7.31692L11.7999 7.39849L10.7726 8.36501C10.6228 8.64103 10.5473 8.82322 10.5473 8.8989C10.5473 9.01436 10.2469 9.08289 9.66063 9.15328C9.20135 9.20843 8.65932 9.24544 8.21594 9.25097V9.25169L8.15974 9.25151L8.10353 9.25169V9.25097C7.66016 9.24544 7.11813 9.20843 6.65884 9.15328C6.07258 9.08289 5.77219 9.01436 5.77219 8.8989C5.77219 8.88459 5.76949 8.86646 5.7641 8.8446C5.70498 8.76932 5.66341 8.64616 5.63576 8.53506C5.6098 8.48311 5.58016 8.42638 5.54683 8.36501L5.31923 8.15087L5.31349 8.14963ZM10.8189 8.16773C10.6356 8.20013 10.5033 8.19681 10.4331 8.13963C10.3232 8.17162 10.1942 8.17469 10.047 8.15073C9.88978 8.12515 9.78029 8.02056 9.7144 7.84706C9.62846 7.95655 9.51982 8.02417 9.38969 8.04611C10.1058 8.14775 10.6074 8.29048 10.6074 8.29048C10.6074 8.29048 10.5949 8.39775 10.5645 8.5234C10.5965 8.45761 10.6345 8.38443 10.6786 8.30359L10.6894 8.28958L10.8189 8.16773ZM9.0508 8.00343C8.98861 7.97246 8.93896 7.92761 8.90304 7.86983C8.8497 7.91693 8.78906 7.95141 8.72172 7.97271C8.83416 7.98132 8.9441 7.99172 9.0508 8.00343ZM8.32551 7.95084C8.23837 7.91047 8.16593 7.8459 8.11182 7.76319C8.05802 7.84545 7.98607 7.90977 7.89956 7.95018C7.95063 7.94866 8.002 7.94759 8.0536 7.94701V7.94629L8.117 7.94654L8.14381 7.9465V7.9468C8.20474 7.94749 8.26534 7.94886 8.32551 7.95084ZM5.62197 8.28192L5.51754 8.18367C5.6429 8.1961 5.73567 8.18431 5.79054 8.13963C5.90047 8.17162 6.02941 8.17469 6.17663 8.15073C6.33386 8.12515 6.44336 8.02056 6.50925 7.84706C6.59278 7.95347 6.69775 8.02034 6.82304 8.04415C6.20509 8.13097 5.74405 8.2491 5.62197 8.28192ZM7.49746 7.97127C7.38895 7.97934 7.28271 7.98908 7.17941 8.00009C7.23853 7.96927 7.28596 7.92557 7.32061 7.86983C7.37277 7.91589 7.43191 7.94987 7.49746 7.97127ZM10.2524 8.90089C10.3312 8.93777 10.3943 8.90067 10.4442 8.82977C10.4397 8.84963 10.4369 8.86755 10.4358 8.88357C10.4293 8.88788 10.4192 8.89305 10.406 8.89861C10.3691 8.91412 10.3127 8.93064 10.2394 8.94736C10.0954 8.98023 9.89031 9.0129 9.64728 9.04208C9.17269 9.09907 8.60837 9.13656 8.15974 9.13951C7.7111 9.13656 7.14678 9.09907 6.67219 9.04208C6.42916 9.0129 6.22409 8.98023 6.08003 8.94736C6.01859 8.93335 5.96906 8.91947 5.93292 8.90621C5.9369 8.9047 5.94092 8.903 5.94498 8.9011C6.19005 8.78642 7.81292 8.67882 8.10034 8.66054C8.39656 8.67941 10.0083 8.78664 10.2524 8.90089ZM10.5607 8.8812L10.5599 8.88224L10.5607 8.88112L10.5613 8.88058L10.5607 8.8812Z" fill="#C88A02"/>
<path fill-rule="evenodd" clip-rule="evenodd" d="M8.11139 5.34729C8.29696 5.34729 8.44739 5.19686 8.44739 5.01129C8.44739 4.82573 8.29696 4.67529 8.11139 4.67529C7.92582 4.67529 7.77539 4.82573 7.77539 5.01129C7.77539 5.19686 7.92582 5.34729 8.11139 5.34729Z" fill="#005BBF"/>
<path fill-rule="evenodd" clip-rule="evenodd" d="M7.89336 6.99679C7.90052 7.0336 7.91169 7.06788 7.9258 7.09844C7.88247 7.08193 7.83106 7.07237 7.77593 7.07237C7.62129 7.07237 7.49593 7.14759 7.49593 7.24037C7.49593 7.33316 7.62129 7.40837 7.77593 7.40837C7.92687 7.40837 8.04992 7.33671 8.05572 7.247C8.06152 7.33671 8.18457 7.40837 8.3355 7.40837C8.49014 7.40837 8.6155 7.33316 8.6155 7.24037C8.6155 7.14759 8.49014 7.07237 8.3355 7.07237C8.29666 7.07237 8.25966 7.07712 8.22604 7.0857C8.23414 7.03979 8.23378 6.98716 8.22319 6.93268C8.19368 6.78088 8.09593 6.67217 8.00485 6.68988C7.91377 6.70758 7.86386 6.84499 7.89336 6.99679ZM6.24633 7.2112C6.23211 7.18053 6.22087 7.14609 6.21367 7.10909C6.18417 6.9573 6.23408 6.81989 6.32516 6.80218C6.41624 6.78448 6.51399 6.89318 6.5435 7.04498C6.55409 7.09947 6.55445 7.1521 6.54635 7.198C6.57998 7.18942 6.61697 7.18468 6.65582 7.18468C6.81046 7.18468 6.93582 7.25989 6.93582 7.35268C6.93582 7.44546 6.81046 7.52068 6.65582 7.52068C6.50118 7.52068 6.37582 7.44546 6.37582 7.35268L6.37594 7.34761L6.37513 7.34733L6.37527 7.35268C6.37527 7.44546 6.24991 7.52068 6.09527 7.52068C5.94063 7.52068 5.81527 7.44546 5.81527 7.35268C5.81527 7.25989 5.94063 7.18468 6.09527 7.18468C6.1509 7.18468 6.20275 7.19441 6.24633 7.2112ZM9.75367 7.31326C9.74075 7.40514 9.60614 7.46217 9.45301 7.44065C9.29988 7.41913 9.1862 7.3272 9.19912 7.23532C9.21203 7.14344 9.34664 7.0864 9.49977 7.10792C9.55472 7.11565 9.60459 7.13244 9.64536 7.15504C9.63553 7.12265 9.62917 7.08695 9.6272 7.04926C9.6191 6.89483 9.68766 6.76571 9.78031 6.76085C9.87297 6.756 9.95464 6.87725 9.96274 7.03168C9.96564 7.08707 9.95868 7.1392 9.94429 7.18351C9.97876 7.17971 10.016 7.18016 10.0545 7.18556C10.2076 7.20708 10.3213 7.29901 10.3084 7.39089C10.2954 7.48277 10.1608 7.53981 10.0077 7.51829C9.85456 7.49677 9.74089 7.40484 9.7538 7.31296L9.75462 7.308L9.75428 7.30783L9.75367 7.31326ZM10.8198 7.75733C10.9563 7.82993 11.1023 7.82237 11.1459 7.74045L11.1483 7.73556C11.1618 7.74985 11.1778 7.76025 11.196 7.76582C11.2847 7.79294 11.3933 7.69505 11.4385 7.54717C11.4837 7.39929 11.4484 7.25741 11.3597 7.23029C11.271 7.20316 11.1624 7.30105 11.1172 7.44893C11.1061 7.48501 11.0999 7.52074 11.0981 7.55453C11.0675 7.51942 11.0264 7.48666 10.9775 7.46066C10.841 7.38806 10.695 7.39562 10.6514 7.47754C10.6079 7.55947 10.6833 7.68473 10.8198 7.75733ZM5.32442 7.79151C5.18788 7.86411 5.04188 7.85655 4.99832 7.77463C4.99752 7.77312 4.99676 7.7716 4.99604 7.77007C4.98254 7.78444 4.96653 7.7949 4.94825 7.80048C4.85952 7.82761 4.75094 7.72972 4.70573 7.58184C4.66052 7.43395 4.69579 7.29208 4.78452 7.26495C4.87325 7.23783 4.98183 7.33572 5.02705 7.4836C5.03803 7.51952 5.04426 7.55508 5.04613 7.58874C5.07669 7.55362 5.11776 7.52085 5.16668 7.49484C5.30322 7.42224 5.44922 7.4298 5.49277 7.51172C5.53633 7.59365 5.46096 7.71891 5.32442 7.79151Z" fill="#C88A02"/>
<path fill-rule="evenodd" clip-rule="evenodd" d="M7.9873 4.07666H8.22064V4.22406H8.37265V4.4574H8.22064V4.92406H8.37265V5.1574H7.83203V4.92406H7.9873V4.4574H7.83203V4.22406H7.9873V4.07666Z" fill="#C88A02"/>
<rect x="7.94336" y="5.34399" width="0.448" height="1.456" fill="#C88A02"/>
<path d="M6.14018 5.58785L6.13823 5.69984C5.14513 5.6825 4.57547 5.82742 4.43087 6.11627C4.28137 6.4149 4.30917 6.77792 4.51865 7.20915L4.41791 7.25809C4.1944 6.79799 4.16388 6.3994 4.33072 6.06614C4.50245 5.7231 5.10507 5.56978 6.14018 5.58785Z" fill="white"/>
<path d="M6.33213 6.58095L6.27471 6.67711C6.05844 6.54798 5.9502 6.3276 5.9502 6.0239C5.9502 5.58742 6.17504 5.33147 6.67239 5.15631C6.98981 5.04452 7.42342 5.09035 7.97444 5.29013L7.93627 5.39542C7.4073 5.20364 6.998 5.16038 6.7096 5.26195C6.25341 5.42261 6.0622 5.64028 6.0622 6.0239C6.0622 6.29041 6.1521 6.47346 6.33213 6.58095Z" fill="white"/>
<path d="M4.65982 7.03733L4.44847 7.11156C4.22919 6.48721 4.29181 6.0632 4.66651 5.88029C4.99667 5.71912 5.47786 5.65353 6.11245 5.67925L6.10338 5.90306C5.50255 5.87872 5.05554 5.93965 4.76477 6.08159C4.51852 6.20179 4.47348 6.50678 4.65982 7.03733Z" fill="#C88A02"/>
<path d="M7.12893 5.4386C6.61679 5.4386 6.40647 5.56333 6.28632 5.93162C6.20975 6.16632 6.28401 6.36664 6.5248 6.55362L6.38742 6.73054C6.07568 6.48846 5.96576 6.19198 6.07337 5.86215C6.22649 5.3928 6.52695 5.2146 7.12893 5.2146C7.52348 5.2146 7.83083 5.31826 8.04484 5.52922L8.07822 5.56212V6.64208H7.85422V5.65786C7.68708 5.51268 7.447 5.4386 7.12893 5.4386Z" fill="#C88A02"/>
<path d="M10.0483 5.69967L10.0502 5.81165C11.0433 5.79431 11.613 5.93924 11.7576 6.22809C11.9071 6.52672 11.8793 6.88974 11.6698 7.32097L11.7706 7.3699C11.9941 6.90981 12.0246 6.51122 11.8578 6.17795C11.686 5.83491 11.0834 5.6816 10.0483 5.69967Z" fill="white"/>
<path d="M9.69815 6.60414L9.75557 6.7003C9.97184 6.57117 10.0801 6.3508 10.0801 6.04709C10.0801 5.61061 9.85523 5.35466 9.35788 5.1795C9.04046 5.06771 8.60685 5.11355 8.05583 5.31332L8.09401 5.41862C8.62297 5.22683 9.03227 5.18357 9.32068 5.28514C9.77686 5.4458 9.96808 5.66347 9.96808 6.04709C9.96808 6.31361 9.87817 6.49665 9.69815 6.60414Z" fill="white"/>
<path d="M11.599 7.14939L11.8103 7.22362C12.0296 6.59927 11.967 6.17526 11.5923 5.99235C11.2621 5.83118 10.7809 5.76559 10.1463 5.79131L10.1554 6.01513C10.7562 5.99078 11.2032 6.05171 11.494 6.19365C11.7403 6.31385 11.7853 6.61884 11.599 7.14939Z" fill="#C88A02"/>
<path d="M9.11716 5.45593C9.62931 5.45593 9.83962 5.58067 9.95977 5.94895C10.0363 6.18366 9.96208 6.38397 9.72129 6.57096L9.85868 6.74788C10.1704 6.5058 10.2803 6.20931 10.1727 5.87948C10.0196 5.41013 9.71915 5.23193 9.11716 5.23193C8.72261 5.23193 8.41526 5.33559 8.20125 5.54655L8.16788 5.57945V6.65942H8.39188V5.67519C8.55902 5.53002 8.7991 5.45593 9.11716 5.45593Z" fill="#C88A02"/>
<path opacity="0.3" fill-rule="evenodd" clip-rule="evenodd" d="M4.47168 9.26416H11.7517V15.805C11.7517 15.805 11.2109 18.0002 8.11168 18.0002C5.01245 18.0002 4.47168 15.7471 4.47168 15.7471V9.26416Z" fill="#E1E5E8"/>
<mask id="mask4_349_14823" style="mask-type:alpha" maskUnits="userSpaceOnUse" x="4" y="9" width="8" height="10">
<path fill-rule="evenodd" clip-rule="evenodd" d="M4.47168 9.26416H11.7517V15.805C11.7517 15.805 11.2109 18.0002 8.11168 18.0002C5.01245 18.0002 4.47168 15.7471 4.47168 15.7471V9.26416Z" fill="white"/>
</mask>
<g mask="url(#mask4_349_14823)">
<rect x="4.47168" y="13.2961" width="3.696" height="4.368" fill="#FFC034"/>
<rect x="4.91992" y="13.5203" width="0.448" height="4.144" fill="#AD1619"/>
<rect x="6.4873" y="13.52" width="0.448" height="4.144" fill="#AD1619"/>
<rect x="5.7041" y="13.52" width="0.448" height="4.144" fill="#AD1619"/>
<rect x="7.27148" y="13.5203" width="0.448" height="4.144" fill="#AD1619"/>
<rect x="4.47168" y="9.1521" width="3.696" height="4.256" fill="#AD1619"/>
<rect x="8.05566" y="13.1841" width="3.696" height="4.256" fill="#AD1619"/>
<rect x="8.05566" y="9.26416" width="3.92" height="4.144" fill="#F1F9FF"/>
<path fill-rule="evenodd" clip-rule="evenodd" d="M6.03986 9.6001H6.37586V10.5293H6.59961V10.0645H6.93561V10.5293H7.27186V11.11H6.93586V12.1554H7.27186V12.7361H5.25586V12.1554H5.59186V11.11H5.25586V10.5293H5.47949V10.0645H5.81549V10.5293H6.03986V9.6001Z" fill="#C88A02"/>
<path d="M9.97852 9.7951L10.2079 9.54956L10.6894 9.99939L10.4601 10.2449L9.97852 9.7951Z" fill="#C88A02"/>
<path fill-rule="evenodd" clip-rule="evenodd" d="M11.3596 16.1403V13.6882H8.55957V16.1198L8.56401 16.1387C8.70575 16.7427 9.18845 17.0482 9.95957 17.0482C10.73 17.0482 11.2126 16.7506 11.3549 16.1597L11.3596 16.1403ZM9.95957 16.7122C9.34087 16.7122 9.00299 16.5038 8.89557 16.0802V14.0242H11.0236V16.0996C10.9164 16.5095 10.5785 16.7122 9.95957 16.7122Z" fill="#FFC034"/>
<path fill-rule="evenodd" clip-rule="evenodd" d="M10.075 13.8931H9.84164V15.0051L8.92157 14.0044L8.75668 14.156L9.58835 15.0605H8.8348V15.3965H9.41378H9.6067L8.75635 16.3214L8.92124 16.473L9.84164 15.472V16.772H10.075V15.5898L10.887 16.473L11.0519 16.3214L10.2016 15.3965H11.1507V15.0605H10.2199L11.0516 14.156L10.8867 14.0044L10.075 14.8872V13.8931Z" fill="#FFC034"/>
<path fill-rule="evenodd" clip-rule="evenodd" d="M10.4822 17.4428C10.4822 17.4428 8.10997 17.6293 8.10997 16.0994C8.10997 16.0994 8.08735 17.4428 5.61035 17.4428V18.6506H10.4822V17.4428Z" fill="#F1F9FF"/>
<path fill-rule="evenodd" clip-rule="evenodd" d="M8.11148 14.1921C8.5754 14.1921 8.95148 13.791 8.95148 13.2961C8.95148 12.8013 8.5754 12.4001 8.11148 12.4001C7.64757 12.4001 7.27148 12.8013 7.27148 13.2961C7.27148 13.791 7.64757 14.1921 8.11148 14.1921Z" fill="#005BBF" stroke="#AD1619" stroke-width="1.16667"/>
</g>
</g>
</g>
</g>
<defs>
<clipPath id="clip0_349_14823">
<rect width="24" height="24" rx="12" fill="white"/>
</clipPath>
</defs>
</svg>
