<svg width="103" height="24" viewBox="0 0 103 24" fill="none" xmlns="http://www.w3.org/2000/svg">
<path d="M8.45262 12.5373C10.8549 12.5373 11.8337 11.0149 11.8337 9.31344C11.8337 7.61194 10.8549 6.08956 8.45262 6.08956H4.09285V12.5373H8.45262ZM0 2.77612H8.63057C13.1683 2.77612 15.8375 5.55224 15.8375 9.40299C15.8375 13.2537 13.1683 16.0299 8.63057 16.0299H4.09285V21.1343H0V2.77612Z" fill="#050606"/>
<path d="M20.2868 11.6418H27.9386C27.7606 9.67165 26.426 8.23881 24.2016 8.23881C22.0663 8.23881 20.7316 9.40299 20.2868 11.6418ZM31.7645 15.9403C31.1417 19.1642 28.2945 21.3134 24.4686 21.3134C19.397 21.3134 16.5498 17.3731 16.5498 13.3433C16.5498 9.31344 19.0411 5.55225 24.1127 5.55225C29.2732 5.55225 31.6755 9.31344 31.6755 12.8955C31.6755 13.4328 31.6755 13.8806 31.5866 14.1493H20.1978C20.4647 16.5672 22.0663 18.1791 24.4686 18.1791C26.426 18.1791 27.6717 17.3731 28.0276 15.9403H31.7645Z" fill="#050606"/>
<path d="M33.6329 5.73135H37.3699V8.05971C38.2596 6.35822 39.9501 5.4627 42.1745 5.4627C45.6445 5.4627 47.9579 7.97016 47.9579 11.5522V21.0448H44.132V12.3582C44.132 10.2985 42.7973 8.77613 40.9289 8.77613C38.7935 8.77613 37.3699 10.3881 37.3699 12.6269V20.9552H33.5439V5.73135H33.6329Z" fill="#050606"/>
<path d="M49.8262 15.9403H53.2962C53.4741 17.3731 54.6308 18.2687 56.3213 18.2687C57.8339 18.2687 58.8126 17.5522 58.8126 16.6567C58.8126 13.2537 50.36 16.4776 50.36 10.0299C50.36 7.34329 52.7623 5.4627 55.9654 5.4627C59.6134 5.4627 62.1047 7.43284 62.2827 10.3881H58.8126C58.6347 8.95523 57.3001 8.23881 56.0544 8.23881C54.7198 8.23881 53.83 8.86568 53.83 9.85076C53.83 13.1642 62.4606 9.49255 62.4606 16.4776C62.4606 19.3433 60.0583 21.2239 56.4993 21.2239C52.4954 21.2239 50.0041 19.1642 49.8262 15.9403Z" fill="#050606"/>
<path d="M75.6284 13.3433C75.6284 10.5672 73.9378 8.68658 71.3576 8.68658C68.7773 8.68658 67.0868 10.5672 67.0868 13.3433C67.0868 16.1194 68.7773 18 71.3576 18C73.8489 18 75.6284 16.1194 75.6284 13.3433ZM63.1719 13.3433C63.1719 8.77613 66.5529 5.4627 71.2686 5.4627C75.9843 5.4627 79.3653 8.77613 79.3653 13.3433C79.3653 17.9105 75.9843 21.2239 71.2686 21.2239C66.5529 21.2239 63.1719 17.9105 63.1719 13.3433Z" fill="#050606"/>
<path d="M87.373 17.0149V23.0149C87.373 23.5522 87.8179 24 88.3518 24H94.4021C94.9359 24 95.3808 23.5522 95.3808 23.0149V16.0299H88.2628C87.8179 16.0299 87.373 16.4776 87.373 17.0149Z" fill="#0018FF"/>
<path d="M102.855 14.597L95.7368 0.537313C95.5589 0.179104 95.203 0 94.8471 0H88.9747C88.2629 0 87.7291 0.80597 88.085 1.43284L95.4699 16.0299H101.965C102.677 16.0299 103.122 15.2239 102.855 14.597Z" fill="#0018FF"/>
</svg>
