<svg width="193" height="45" viewBox="0 0 193 45" fill="none" xmlns="http://www.w3.org/2000/svg">
<path d="M15.847 23.5073C20.3509 23.5073 22.1858 20.6528 22.1858 17.4625C22.1858 14.2722 20.3509 11.4178 15.847 11.4178H7.67329V23.5073H15.847ZM0 5.20508H16.1806C24.688 5.20508 29.6923 10.4103 29.6923 17.6305C29.6923 24.8506 24.688 30.0558 16.1806 30.0558H7.67329V39.6267H0V5.20508Z" fill="#050606"/>
<path d="M38.0324 21.8281H52.3781C52.0445 18.134 49.5424 15.4475 45.3721 15.4475C41.3686 15.4475 38.8665 17.6303 38.0324 21.8281ZM59.551 29.8878C58.3833 35.9325 53.0454 39.9624 45.8725 39.9624C36.3643 39.9624 31.0264 32.5743 31.0264 25.0184C31.0264 17.4624 35.6971 10.4102 45.2053 10.4102C54.8803 10.4102 59.3842 17.4624 59.3842 24.1788C59.3842 25.1863 59.3842 26.0258 59.2174 26.5296H37.8656C38.366 31.0631 41.3686 34.0855 45.8725 34.0855C49.5424 34.0855 51.8777 32.5743 52.5449 29.8878H59.551Z" fill="#050606"/>
<path d="M63.0545 10.7459H70.0606V15.1116C71.7287 11.9213 74.8981 10.2422 79.0683 10.2422C85.574 10.2422 89.911 14.9437 89.911 21.6601V39.4586H82.7382V23.1713C82.7382 19.3094 80.236 16.4549 76.733 16.4549C72.7295 16.4549 70.0606 19.4773 70.0606 23.675V39.2907H62.8877V10.7459H63.0545Z" fill="#050606"/>
<path d="M93.4141 29.8877H99.9197C100.253 32.5743 102.422 34.2534 105.591 34.2534C108.427 34.2534 110.262 32.9101 110.262 31.231C110.262 24.8504 94.4149 30.8952 94.4149 18.8056C94.4149 13.7683 98.9188 10.2422 104.924 10.2422C111.763 10.2422 116.434 13.9362 116.768 19.4773H110.262C109.928 16.7907 107.426 15.4474 105.091 15.4474C102.589 15.4474 100.921 16.6228 100.921 18.4698C100.921 24.6825 117.101 17.7982 117.101 30.8952C117.101 36.2683 112.597 39.7944 105.925 39.7944C98.4184 39.7944 93.7477 35.9325 93.4141 29.8877Z" fill="#050606"/>
<path d="M141.789 25.0183C141.789 19.8131 138.62 16.287 133.782 16.287C128.945 16.287 125.775 19.8131 125.775 25.0183C125.775 30.2235 128.945 33.7497 133.782 33.7497C138.453 33.7497 141.789 30.2235 141.789 25.0183ZM118.436 25.0183C118.436 16.4549 124.774 10.2422 133.615 10.2422C142.456 10.2422 148.795 16.4549 148.795 25.0183C148.795 33.5817 142.456 39.7944 133.615 39.7944C124.774 39.7944 118.436 33.5817 118.436 25.0183Z" fill="#050606"/>
<path d="M163.809 31.9027V43.1527C163.809 44.1601 164.643 44.9997 165.644 44.9997H176.987C177.988 44.9997 178.822 44.1601 178.822 43.1527V30.0557H165.477C164.643 30.0557 163.809 30.8952 163.809 31.9027Z" fill="#0018FF"/>
<path d="M192.834 27.3694L179.489 1.00746C179.155 0.335821 178.488 0 177.821 0H166.811C165.477 0 164.476 1.51119 165.143 2.68657L178.988 30.056H191.166C192.5 30.056 193.334 28.5448 192.834 27.3694Z" fill="#0018FF"/>
</svg>
